<svg xmlns="http://www.w3.org/2000/svg" viewBox="0 0 400 96"><defs><style>.a{fill:#fff;}</style></defs><path d="M267,5V91H16A11,11,0,0,1,5,80V16A11,11,0,0,1,16,5H267m5-5H16A16,16,0,0,0,0,16V80A16,16,0,0,0,16,96H272V0Z"/><path class="a" d="M258.5,93.5V2.5H384A13.52,13.52,0,0,1,397.5,16V80A13.52,13.52,0,0,1,384,93.5Z"/><path d="M384,5a11,11,0,0,1,11,11V80a11,11,0,0,1-11,11H261V5H384m0-5H256V96H384a16,16,0,0,0,16-16V16A16,16,0,0,0,384,0Z"/><path d="M294.92,52c-.73,2.88-2.89,5-6.74,5-5.05,0-7.56-3.77-7.56-8.49,0-4.53,2.53-8.63,7.66-8.63,4,0,6.16,2.31,6.64,5.1h-2.48a4,4,0,0,0-4.26-3.07c-3.54,0-5,3.22-5,6.52S284.55,55,288.28,55a4.11,4.11,0,0,0,4.15-3Z"/><path d="M308.4,50.67c0,3.55-2,6.42-5.81,6.42-3.56,0-5.7-2.71-5.7-6.38s2.12-6.42,5.84-6.42C306.16,44.29,308.4,46.83,308.4,50.67Zm-9.09,0c0,2.62,1.28,4.46,3.36,4.46S306,53.39,306,50.7s-1.19-4.47-3.37-4.47S299.31,47.94,299.31,50.69Z"/><path d="M311.07,47.66c0-1.06,0-2.14,0-3.08h2.29c.06.35.09,1.55.09,1.92a3.83,3.83,0,0,1,3.79-2.21c2.32,0,4.08,1.45,4.08,4.67V56.8h-2.36V49.25c0-1.76-.67-3-2.46-3-2.14,0-3.05,1.57-3.05,4V56.8h-2.35Z"/><path d="M325.15,56.8V46.46h-1.94V44.58h1.94V43.19c0-2.3.93-4.23,3.62-4.23a5.56,5.56,0,0,1,1.4.16v2a5.4,5.4,0,0,0-1-.1c-1.2,0-1.66.68-1.66,2.38v1.23h2.39v1.88H327.5V56.8Z"/><path d="M331.86,39.2h2.36v2.71h-2.36Zm0,5.38h2.36V56.8h-2.36Z"/><path d="M337.72,47.9c0-1.61,0-2.6,0-3.32H340c0,.33.07,1.34.07,2.43a4.25,4.25,0,0,1,4.08-2.72v2.32c-2.49,0-4.08,1.24-4.08,4.38V56.8h-2.35Z"/><path d="M346.12,47.73c0-1,0-2.15,0-3.15h2.27c0,.35.09,1.21.09,1.8A3.78,3.78,0,0,1,352,44.29a3.31,3.31,0,0,1,3.33,2.13,4.17,4.17,0,0,1,3.87-2.13c2,0,3.86,1.2,3.86,4.48v8h-2.31V49.06c0-1.36-.49-2.77-2.3-2.77s-2.69,1.39-2.69,3.5v7h-2.31V49.14c0-1.52-.42-2.84-2.24-2.84s-2.74,1.44-2.74,3.73V56.8h-2.33Z"/><path d="M369.38,51.73v-.38c0-1.34.43-2.53,2.3-4.19a3.73,3.73,0,0,0,1.56-3,2.24,2.24,0,0,0-2.4-2.33c-1.69,0-2.45,1.07-2.68,2.63h-2.32a4.7,4.7,0,0,1,5.05-4.54c3.59,0,4.75,2.46,4.75,4.29,0,1.65-.53,2.74-2.28,4.33a3.76,3.76,0,0,0-1.55,3v.21Zm0,5.07V53.37h2.43V56.8Z"/></svg>