<svg xmlns="http://www.w3.org/2000/svg" viewBox="0 0 400 128"><defs><style>.a{fill:#ff92fa;}.b{fill:#ff1ddf;}</style></defs><path class="a" d="M130.5,125.5v-91H384A13.52,13.52,0,0,1,397.5,48v64A13.52,13.52,0,0,1,384,125.5Z"/><path d="M384,37a11,11,0,0,1,11,11v64a11,11,0,0,1-11,11H133V37H384m0-5H128v96H384a16,16,0,0,0,16-16V48a16,16,0,0,0-16-16Z"/><path class="b" d="M2.5,61.5V16A13.52,13.52,0,0,1,16,2.5H128A13.52,13.52,0,0,1,141.5,16V61.5Z"/><path d="M128,5a11,11,0,0,1,11,11V59H5V16A11,11,0,0,1,16,5H128m0-5H16A16,16,0,0,0,0,16V64H144V16A16,16,0,0,0,128,0Z"/><path class="b" d="M16,125.5A13.52,13.52,0,0,1,2.5,112V34.5h139v91Z"/><path d="M139,37v86H16A11,11,0,0,1,5,112V37H139m5-5H0v80a16,16,0,0,0,16,16H144V32Z"/></svg>