<svg xmlns="http://www.w3.org/2000/svg" viewBox="0 0 160 128"><defs><style>.a{fill:#ff1ddf;}.b{fill:#fff;}</style></defs><rect class="a" x="2.5" y="2.5" width="155" height="123" rx="13.5"/><path d="M144,5a11,11,0,0,1,11,11v96a11,11,0,0,1-11,11H16A11,11,0,0,1,5,112V16A11,11,0,0,1,16,5H144m0-5H16A16,16,0,0,0,0,16v96a16,16,0,0,0,16,16H144a16,16,0,0,0,16-16V16A16,16,0,0,0,144,0Z"/><path class="b" d="M28,78.5a10.5,10.5,0,0,1,0-21H132a10.5,10.5,0,0,1,0,21Z"/><path class="b" d="M132,59a9,9,0,0,1,0,18H28a9,9,0,0,1,0-18H132m0-3H28A12,12,0,0,0,16,68h0A12,12,0,0,0,28,80H132a12,12,0,0,0,12-12h0a12,12,0,0,0-12-12Z"/><path class="b" d="M28,110a10,10,0,0,1,0-20H132a10,10,0,0,1,0,20Z"/><path class="b" d="M132,92a8,8,0,0,1,0,16H28a8,8,0,0,1,0-16H132m0-4H28a12,12,0,0,0-12,12h0a12,12,0,0,0,12,12H132a12,12,0,0,0,12-12h0a12,12,0,0,0-12-12Z"/><path d="M117.58,48a0,0,0,0,1,0,0l0-6.87s0,0,0,0h3.2s0,0,0,0v1.13s0,0,0,0h-2v1.55h2s0,0,0,0V45s0,0,0,0h-2v2.93a0,0,0,0,1,0,0Z"/><path d="M120.81,47.92l1.24-6.87s0,0,0,0h1.45s0,0,0,0l1.19,6.87s0,0,0,0h-1.11s0,0,0,0l-.11-.73h-1.36l-.11.73s0,0-.05,0h-1.11S120.81,48,120.81,47.92Zm1.51-1.8h1l-.41-2.81-.06-.37,0,.37Z"/><path d="M125.94,48s0,0,0,0v-5.7h-1.3a0,0,0,0,1,0,0V41.05s0,0,0,0h3.8s0,0,0,0v1.12s0,0,0,0H127.1v5.7s0,0,0,0Z"/><path d="M129,48a0,0,0,0,1-.05,0V41.05s0,0,0,0h1.12s0,0,0,0v6.87s0,0,0,0Z"/><path d="M132.87,48.07a1.83,1.83,0,0,1-1-.27,2,2,0,0,1-1-1.74V42.89a1.89,1.89,0,0,1,.27-1,1.91,1.91,0,0,1,.71-.73,1.82,1.82,0,0,1,1-.27,1.94,1.94,0,0,1,1.7,1,2,2,0,0,1,.26,1v.46s0,0-.05,0h-1.12s0,0,0,0V43a1,1,0,0,0-.21-.63.69.69,0,0,0-.54-.25.68.68,0,0,0-.51.24.8.8,0,0,0-.23.56v3.17a.76.76,0,0,0,.22.56.69.69,0,0,0,.52.24.74.74,0,0,0,.54-.23.8.8,0,0,0,.21-.57v-.49h-.7a0,0,0,0,1,0,0V44.4a0,0,0,0,1,0,0h1.87s0,0,0,0v1.66a2.09,2.09,0,0,1-.26,1,2.13,2.13,0,0,1-.71.72A1.84,1.84,0,0,1,132.87,48.07Z"/><path d="M137.44,48.07a1.88,1.88,0,0,1-1-.27,2,2,0,0,1-.71-.74,2,2,0,0,1-.27-1l0-5s0,0,0,0h1.12s0,0,0,0v5a.77.77,0,0,0,.22.57.66.66,0,0,0,.52.24.71.71,0,0,0,.54-.24.8.8,0,0,0,.21-.57v-5s0,0,0,0h1.12s0,0,0,0l0,5a2,2,0,0,1-1,1.75A1.9,1.9,0,0,1,137.44,48.07Z"/><path d="M140.24,48s0,0,0,0V41.05s0,0,0,0h3.21s0,0,0,.05v1.12s0,0,0,0h-2.05v1.56h2.05s0,0,0,0V45s0,0,0,0h-2.06v1.75h2.06s0,0,0,0v1.14s0,0,0,0Z"/></svg>