<svg xmlns="http://www.w3.org/2000/svg" viewBox="0 0 336 128"><defs><style>.a{fill:#fff;}</style></defs><rect class="a" x="2.5" y="2.5" width="331" height="123" rx="29.5"/><path d="M304,5a27,27,0,0,1,27,27V96a27,27,0,0,1-27,27H32A27,27,0,0,1,5,96V32A27,27,0,0,1,32,5H304m0-5H32A32,32,0,0,0,0,32V96a32,32,0,0,0,32,32H304a32,32,0,0,0,32-32V32A32,32,0,0,0,304,0Z"/><path d="M98.29,38.37V52.8H93.4V19.46h13.34c6.93,0,10.63,3.77,10.63,9,0,4.36-2.48,6.95-5.52,7.85,2.51.71,4.9,2.68,4.9,8.5v1.48c0,2.28-.08,5.12.46,6.55h-4.78c-.6-1.44-.59-4-.59-7.23v-.66c0-4.54-1.26-6.54-7.13-6.54Zm0-4.1h7c4.88,0,7-1.84,7-5.41,0-3.38-2.2-5.3-6.54-5.3H98.29Z"/><path d="M144.94,40.53c0,7.11-4.11,12.85-11.64,12.85-7.11,0-11.38-5.42-11.38-12.76s4.23-12.83,11.67-12.83C140.45,27.79,144.94,32.87,144.94,40.53Zm-18.19,0c0,5.23,2.55,8.93,6.73,8.93S140.1,46,140.1,40.6s-2.37-8.94-6.72-8.94S126.75,35.08,126.75,40.58Z"/><path d="M147.2,28.36h4.14V21.27h4.71v7.09h5.28v3.76h-5.28V46c0,2.27.58,3.4,2.75,3.4a9.71,9.71,0,0,0,2-.18v3.46a12.2,12.2,0,0,1-3.83.46c-4,0-5.65-2.09-5.65-6.19V32.12H147.2Z"/><path d="M184.35,47.28a41.89,41.89,0,0,0,.33,5.52h-4.5a12.17,12.17,0,0,1-.39-3c-.86,1.58-2.76,3.62-7.42,3.62-5.78,0-8.25-3.78-8.25-7.51,0-5.48,4.32-8,11.57-8h4v-2c0-2.08-.67-4.53-5-4.53-3.84,0-4.52,1.87-4.94,3.75h-4.54c.33-3.56,2.53-7.38,9.64-7.35,6.08,0,9.44,2.47,9.44,8.08ZM179.75,41H176c-4.72,0-7.12,1.33-7.12,4.56,0,2.39,1.62,4.17,4.52,4.17,5.58,0,6.32-3.77,6.32-8Z"/><path d="M188,28.36h4.14V21.27h4.71v7.09h5.28v3.76h-5.28V46c0,2.27.58,3.4,2.75,3.4a9.71,9.71,0,0,0,2-.18v3.46a12.17,12.17,0,0,1-3.83.46c-4,0-5.65-2.09-5.65-6.19V32.12H188Z"/><path d="M209.38,41.48c0,4.6,2.34,8,6.34,8,3.66,0,4.83-1.83,5.58-3.56H226c-.94,3.11-3.57,7.43-10.46,7.43-7.75,0-11-6.2-11-12.52,0-7.34,3.72-13.07,11.23-13.07,8,0,10.62,6.27,10.62,11.66a18.82,18.82,0,0,1-.07,2Zm12.32-3.2c0-3.8-1.9-6.86-5.9-6.86s-5.87,2.84-6.27,6.86Z"/><path d="M237.42,42.65V41.9c0-2.68.87-5.06,4.61-8.39,2.61-2.34,3.1-4.13,3.1-6a4.45,4.45,0,0,0-4.78-4.65c-3.39,0-4.91,2.14-5.37,5.25h-4.64c.18-3.15,2.27-9.1,10.1-9.08,7.18,0,9.51,4.92,9.51,8.59,0,3.29-1.07,5.46-4.58,8.65-2.33,2.14-3.08,3.78-3.08,6v.42Zm0,10.15V45.93h4.87V52.8Z"/><path d="M53.36,110.4,44.8,97.07h0L36.16,110.4H30.71L42,93.53,31.11,77.06h5.75L45,89.67h0l8.31-12.61h5.38l-11,16,11.4,17.3Z"/><path d="M71.48,86h4.14V78.87h4.71V86h5.28v3.76H80.33V103.6c0,2.28.58,3.4,2.75,3.4a9.71,9.71,0,0,0,2-.18v3.46a12.17,12.17,0,0,1-3.83.46c-4,0-5.65-2.09-5.65-6.19V89.72H71.48Z"/><path d="M111.12,98.13c0,7.11-4.11,12.85-11.63,12.85-7.11,0-11.39-5.42-11.39-12.76s4.23-12.83,11.67-12.83C106.64,85.39,111.12,90.47,111.12,98.13Zm-18.18.05c0,5.23,2.55,8.93,6.72,8.93s6.63-3.53,6.63-8.91-2.38-8.94-6.73-8.94S92.94,92.68,92.94,98.18Z"/><path d="M148.12,102.84c-1,4.18-3.85,8.14-10.27,8.14-6.89,0-11-4.93-11-12.66,0-7,4-12.93,11.33-12.93s9.68,5.19,10,8.27h-4.65c-.57-2.4-2-4.4-5.4-4.4-4.09,0-6.4,3.51-6.4,8.9s2.27,9,6.27,9c2.91,0,4.59-1.58,5.51-4.29Z"/><path d="M174.63,98.13c0,7.11-4.11,12.85-11.64,12.85-7.11,0-11.38-5.42-11.38-12.76s4.23-12.83,11.67-12.83C170.14,85.39,174.63,90.47,174.63,98.13Zm-18.19.05c0,5.23,2.55,8.93,6.72,8.93s6.63-3.53,6.63-8.91-2.38-8.94-6.72-8.94S156.44,92.68,156.44,98.18Z"/><path d="M180,92.12c0-2.11,0-4.28,0-6.16h4.58a37.42,37.42,0,0,1,.18,3.84c1-2,2.94-4.41,7.58-4.41s8.15,2.9,8.15,9.33V110.4h-4.71V95.3c0-3.51-1.34-5.9-4.93-5.9-4.27,0-6.09,3.13-6.09,7.93V110.4H180Z"/><path d="M204,86h4.14V78.87h4.71V86h5.28v3.76h-5.28V103.6c0,2.28.58,3.4,2.75,3.4a9.71,9.71,0,0,0,2-.18v3.46a12.2,12.2,0,0,1-3.83.46c-4,0-5.65-2.09-5.65-6.19V89.72H204Z"/><path d="M222.46,75.2h4.71v5.42h-4.71Zm0,10.76h4.71V110.4h-4.71Z"/><path d="M234.19,92.12c0-2.11,0-4.28-.05-6.16h4.58a37.42,37.42,0,0,1,.18,3.84c.95-2,2.94-4.41,7.58-4.41s8.15,2.9,8.15,9.33V110.4h-4.71V95.3c0-3.51-1.34-5.9-4.93-5.9-4.27,0-6.09,3.13-6.09,7.93V110.4h-4.71Z"/><path d="M281.37,103.28c0,2.38,0,5.53,0,7.12h-4.59c-.1-.65-.14-2.1-.17-3.5-1.24,2.66-3.56,4.08-7.27,4.08-4.28,0-8.09-2.24-8.09-9V86H266V101c0,3.12,1,5.93,4.81,5.93,4.22,0,5.86-2.32,5.86-8.18V86h4.72Z"/><path d="M291.54,99.08c0,4.6,2.34,8,6.33,8,3.66,0,4.83-1.83,5.58-3.56h4.74c-.94,3.11-3.57,7.43-10.46,7.43-7.75,0-11-6.2-11-12.52,0-7.34,3.71-13.07,11.22-13.07,8,0,10.62,6.27,10.62,11.66a18.82,18.82,0,0,1-.07,2Zm12.31-3.2C303.8,92.08,302,89,298,89s-5.87,2.84-6.27,6.86Z"/></svg>